<?xml version="1.0" encoding="UTF-8"?>
<svg id="a" data-name="图层 1" xmlns="http://www.w3.org/2000/svg" viewBox="0 0 90 16">
  <g>
    <rect y="12.8" width="90" height="3.2" style="fill: #5bcffa;"/>
    <rect y="9.6" width="90" height="3.2" style="fill: #f5abb9;"/>
    <rect y="6.4" width="90" height="3.2" style="fill: #fff;"/>
    <rect y="3.2" width="90" height="3.2" style="fill: #f5abb9;"/>
    <rect width="90" height="3.2" style="fill: #5bcffa;"/>
  </g>
  <g>
    <path d="M45.05.28c.52,0,1.68,1.02,1.68,1.02,0,0,2.05-.2,2.43.04.38.24.74,2.05.74,2.05,0,0,1.46.26,1.73.64.26.38.1,2.17.1,2.17,0,0,1,1.12.96,1.68-.04.56-1.02,1.7-1.02,1.7,0,0,.34,1.83.12,2.23-.22.4-1.85,1.12-1.85,1.12,0,0-.6,1.54-.88,1.73-.28.18-2.35-.04-2.35-.04,0,0-1.24,1.08-1.58,1.1s-1.68-1.12-1.68-1.12c0,0-2.05.28-2.35.1-.34-.2-.84-1.64-.84-1.64,0,0-1.62-.42-1.89-.84-.2-.32-.14-2.21-.14-2.21,0,0-.9-1.37-.92-1.93-.02-.44,1.06-1.7,1.06-1.7,0,0-.16-1.99.06-2.37s1.5-.5,1.5-.5c0,0,.58-1.87.98-2.11.4-.24,2.37.08,2.37.08,0,0,1.28-1.2,1.77-1.2Z" style="fill: #afafaf;"/>
    <path d="M45,.74c-.24-.02-1.52,1.22-1.52,1.22,0,0-1.97-.2-2.19-.1-.22.1-.84,1.97-.84,1.97,0,0-1.46.2-1.67.48s.1,2.19.1,2.19c0,0-1.08,1.32-1.08,1.55s1,1.73,1,1.73c0,0-.18,1.5-.06,1.7s1.75.76,1.75.76c0,0,.52,1.64.8,1.75.28.1,2.25-.18,2.25-.18,0,0,1.26.96,1.48.96s1.42-1.02,1.42-1.02c0,0,2.13.24,2.33.16s1.02-1.79,1.02-1.79c0,0,1.5-.5,1.58-.74s-.3-2.17-.3-2.17c0,0,1.14-1.24,1.12-1.56-.02-.32-1-1.38-1-1.38,0,0,.16-1.79.02-2.03-.14-.24-1.73-.48-1.73-.48,0,0-.4-1.83-.6-1.95-.2-.12-2.15.1-2.15.1,0,0-1.52-1.14-1.75-1.16Z" style="fill: #e2e2e2;"/>
    <path d="M44.99,1.42s1.34,1.04,1.52,1.08c.18.04,1.97-.22,1.97-.22,0,0,.38,1.76.5,1.89s1.67.46,1.67.46c0,0-.04,1.68.02,1.79s.88,1.24.88,1.24c0,0-1.02,1.26-1.06,1.42s.38,2.03.38,2.03c0,0-1.44.56-1.56.66s-.8,1.54-.8,1.54c0,0-1.99-.22-2.23-.16s-1.24.88-1.24.88c0,0-1.24-.8-1.42-.86s-2.09.22-2.09.22c0,0-.62-1.54-.72-1.64s-1.48-.64-1.48-.64c0,0,.1-1.56.06-1.68-.04-.12-.92-1.42-.92-1.42,0,0,.92-1.22.98-1.48s-.12-1.87-.12-1.87c0,0,1.48-.34,1.58-.44s.66-1.89.66-1.89c0,0,1.83.28,2.03.24s1.4-1.15,1.4-1.15Z" style="fill: #feffff;"/>
    <path d="M45.47,3.56c.03.25-.68.29-1.45.68-.71.36-3.26,2.15-1.82,5.01.64,1.27,1.91,1.78,3.26,1.61,1.68-.2,3.05-1.56,2.62-3.33-.27-1.1-1.05-1.51-1.83-1.6-1.07-.12-1.98.63-1.99,1.45-.02,1.4,1.65,1.24,1.63.52s.37-.78.48-.79c.11-.01.61.1.63.75s-.42,1.93-2.07,1.81c-1.75-.12-1.94-1.82-1.85-2.52.04-.35.45-2.21,2.65-2.36,2.21-.15,3.42,1.58,3.49,3.02.15,2.88-2.13,4.4-4.53,4.26s-3.93-2.23-3.88-4.64c.05-2.53,2.19-3.56,2.81-3.83.68-.29,1.83-.35,1.87-.05Z" style="fill: #ef7ead;"/>
  </g>
</svg>